HIERARCHY
ROOT Hips
{
	OFFSET 0.000000 0.000000 0.000000
	CHANNELS 6 Xposition Yposition Zposition Xrotation Yrotation Zrotation
	JOINT Thigh.L
	{
		OFFSET 0.054214 0.030721 -0.091931
		CHANNELS 3 Xrotation Yrotation Zrotation
		JOINT Shin.L
		{
			OFFSET 0.053251 0.015721 -0.411258
			CHANNELS 3 Xrotation Yrotation Zrotation
			JOINT Foot.L
			{
				OFFSET -0.041505 0.032921 -0.432088
				CHANNELS 3 Xrotation Yrotation Zrotation
				JOINT Toe.L
				{
					OFFSET 0.044723 -0.119426 -0.063857
					CHANNELS 3 Xrotation Yrotation Zrotation
					End Site
					{
						OFFSET 0.000000 0.050000 0.000000
					}
				}
			}
		}
	}
	JOINT Thigh.R
	{
		OFFSET -0.059507 0.027993 -0.102329
		CHANNELS 3 Xrotation Yrotation Zrotation
		JOINT Shin.R
		{
			OFFSET -0.042622 0.021186 -0.394943
			CHANNELS 3 Xrotation Yrotation Zrotation
			JOINT Foot.R
			{
				OFFSET 0.015592 0.021416 -0.441018
				CHANNELS 3 Xrotation Yrotation Zrotation
				JOINT Toe.R
				{
					OFFSET -0.037068 -0.120199 -0.063802
					CHANNELS 3 Xrotation Yrotation Zrotation
					End Site
					{
						OFFSET 0.000000 0.050000 0.000000
					}
				}
			}
		}
	}
	JOINT Spine
	{
		OFFSET -0.002059 0.019558 0.109334
		CHANNELS 3 Xrotation Yrotation Zrotation
		JOINT Spine.2
		{
			OFFSET 0.006718 0.002889 0.134636
			CHANNELS 3 Xrotation Yrotation Zrotation
			JOINT Chest
			{
				OFFSET -0.010383 -0.023060 0.049380
				CHANNELS 3 Xrotation Yrotation Zrotation
				JOINT Neck
				{
					OFFSET -0.009439 0.029035 0.163637
					CHANNELS 3 Xrotation Yrotation Zrotation
					JOINT Head
					{
						OFFSET 0.022309 -0.022109 0.165431
						CHANNELS 3 Xrotation Yrotation Zrotation
						End Site
						{
							OFFSET 0.000000 0.050000 0.000000
						}
					}
				}
				JOINT Clavicle.L
				{
					OFFSET 0.043330 0.008323 0.083643
					CHANNELS 3 Xrotation Yrotation Zrotation
					JOINT UpperArm.L
					{
						OFFSET 0.106594 0.014782 0.061803
						CHANNELS 3 Xrotation Yrotation Zrotation
						JOINT ForeArm.L
						{
							OFFSET 0.264518 0.035127 -0.075598
							CHANNELS 3 Xrotation Yrotation Zrotation
							JOINT Hand.L
							{
								OFFSET 0.263811 0.006268 0.021235
								CHANNELS 3 Xrotation Yrotation Zrotation
								JOINT Thumb1.L
								{
									OFFSET 0.154580 0.002841 0.009625
									CHANNELS 3 Xrotation Yrotation Zrotation
									JOINT Thumb2.L
									{
										OFFSET 0.029895 0.000710 0.002406
										CHANNELS 3 Xrotation Yrotation Zrotation
										End Site
										{
											OFFSET 0.024912 0.000592 0.002005
										}
									}
								}
								JOINT Index1.L
								{
									OFFSET 0.137580 0.002841 0.009625
									CHANNELS 3 Xrotation Yrotation Zrotation
									JOINT Index2.L
									{
										OFFSET 0.029895 0.000710 0.002406
										CHANNELS 3 Xrotation Yrotation Zrotation
										JOINT Index3.L
										{
											OFFSET 0.021923 0.000521 0.001765
											CHANNELS 3 Xrotation Yrotation Zrotation
											End Site
											{
												OFFSET 0.017937 0.000426 0.001444
											}
										}
									}
								}
								JOINT Middle1.L
								{
									OFFSET 0.119580 0.002841 0.009625
									CHANNELS 3 Xrotation Yrotation Zrotation
									JOINT Middle2.L
									{
										OFFSET 0.030891 0.000734 0.002487
										CHANNELS 3 Xrotation Yrotation Zrotation
										JOINT Middle3.L
										{
											OFFSET 0.021923 0.000521 0.001765
											CHANNELS 3 Xrotation Yrotation Zrotation
											End Site
											{
												OFFSET 0.017937 0.000426 0.001444
											}
										}
									}
								}
								JOINT Ring1.L
								{
									OFFSET 0.101580 0.002841 0.009625
									CHANNELS 3 Xrotation Yrotation Zrotation
									JOINT Ring2.L
									{
										OFFSET 0.028898 0.000687 0.002326
										CHANNELS 3 Xrotation Yrotation Zrotation
										JOINT Ring3.L
										{
											OFFSET 0.019930 0.000474 0.001604
											CHANNELS 3 Xrotation Yrotation Zrotation
											End Site
											{
												OFFSET 0.016940 0.000402 0.001364
											}
										}
									}
								}
								JOINT Pinky1.L
								{
									OFFSET 0.085580 0.002841 0.009625
									CHANNELS 3 Xrotation Yrotation Zrotation
									JOINT Pinky2.L
									{
										OFFSET 0.023916 0.000568 0.001925
										CHANNELS 3 Xrotation Yrotation Zrotation
										JOINT Pinky3.L
										{
											OFFSET 0.016940 0.000402 0.001364
											CHANNELS 3 Xrotation Yrotation Zrotation
											End Site
											{
												OFFSET 0.013951 0.000331 0.001123
											}
										}
									}
								}
							}
						}
					}
				}
				JOINT Clavicle.R
				{
					OFFSET -0.041398 0.014408 0.083145
					CHANNELS 3 Xrotation Yrotation Zrotation
					JOINT UpperArm.R
					{
						OFFSET -0.092028 0.009678 0.057348
						CHANNELS 3 Xrotation Yrotation Zrotation
						JOINT ForeArm.R
						{
							OFFSET -0.280605 0.022550 -0.042846
							CHANNELS 3 Xrotation Yrotation Zrotation
							JOINT Hand.R
							{
								OFFSET -0.260513 0.018839 -0.003403
								CHANNELS 3 Xrotation Yrotation Zrotation
								JOINT Thumb1.R
								{
									OFFSET -0.154677 0.008654 -0.001563
									CHANNELS 3 Xrotation Yrotation Zrotation
									JOINT Thumb2.R
									{
										OFFSET -0.029919 0.002164 -0.000391
										CHANNELS 3 Xrotation Yrotation Zrotation
										End Site
										{
											OFFSET -0.024933 0.001803 -0.000326
										}
									}
								}
								JOINT Index1.R
								{
									OFFSET -0.137677 0.008654 -0.001563
									CHANNELS 3 Xrotation Yrotation Zrotation
									JOINT Index2.R
									{
										OFFSET -0.029919 0.002164 -0.000391
										CHANNELS 3 Xrotation Yrotation Zrotation
										JOINT Index3.R
										{
											OFFSET -0.021941 0.001587 -0.000287
											CHANNELS 3 Xrotation Yrotation Zrotation
											End Site
											{
												OFFSET -0.017952 0.001298 -0.000234
											}
										}
									}
								}
								JOINT Middle1.R
								{
									OFFSET -0.119677 0.008654 -0.001563
									CHANNELS 3 Xrotation Yrotation Zrotation
									JOINT Middle2.R
									{
										OFFSET -0.030917 0.002236 -0.000404
										CHANNELS 3 Xrotation Yrotation Zrotation
										JOINT Middle3.R
										{
											OFFSET -0.021941 0.001587 -0.000287
											CHANNELS 3 Xrotation Yrotation Zrotation
											End Site
											{
												OFFSET -0.017952 0.001298 -0.000234
											}
										}
									}
								}
								JOINT Ring1.R
								{
									OFFSET -0.101677 0.008654 -0.001563
									CHANNELS 3 Xrotation Yrotation Zrotation
									JOINT Ring2.R
									{
										OFFSET -0.028922 0.002091 -0.000378
										CHANNELS 3 Xrotation Yrotation Zrotation
										JOINT Ring3.R
										{
											OFFSET -0.019946 0.001442 -0.000261
											CHANNELS 3 Xrotation Yrotation Zrotation
											End Site
											{
												OFFSET -0.016954 0.001226 -0.000221
											}
										}
									}
								}
								JOINT Pinky1.R
								{
									OFFSET -0.085677 0.008654 -0.001563
									CHANNELS 3 Xrotation Yrotation Zrotation
									JOINT Pinky2.R
									{
										OFFSET -0.023935 0.001731 -0.000313
										CHANNELS 3 Xrotation Yrotation Zrotation
										JOINT Pinky3.R
										{
											OFFSET -0.016954 0.001226 -0.000221
											CHANNELS 3 Xrotation Yrotation Zrotation
											End Site
											{
												OFFSET -0.013962 0.001010 -0.000182
											}
										}
									}
								}
							}
						}
					}
				}
			}
		}
	}
}
MOTION
Frames: 4
Frame Time: 0.04166667
-0.002162 -0.033595 1.041344 -4.575206 0.857810 2.605481 2.907444 1.668842 -1.745128 4.164907 -0.118517 -11.585796 -7.003006 0.581002 7.554931 2.999057 -3.769929 0.464575 0.988889 -1.518526 1.167129 5.363709 0.637415 5.146391 -4.109152 -3.749813 -3.958985 0.994071 -2.331513 -1.386784 4.214829 0.111502 2.371902 4.682636 -4.133062 -2.788872 -5.155955 3.337246 0.398243 9.242574 0.192296 3.519744 14.674499 1.657507 2.826941 5.483479 20.984965 3.100280 18.332268 48.762281 -23.287391 17.850144 -2.107117 -20.748807 4.042910 0.386601 -7.593745 0.000000 0.000000 0.000000 0.000000 0.000000 0.000000 0.000000 0.000000 0.000000 0.000000 0.000000 0.000000 0.000000 0.000000 0.000000 0.000000 0.000000 0.000000 0.000000 0.000000 0.000000 0.000000 0.000000 0.000000 0.000000 0.000000 0.000000 0.000000 0.000000 0.000000 0.000000 0.000000 0.000000 0.000000 0.000000 0.000000 0.000000 0.000000 0.000000 0.000000 0.000000 0.000000 2.357280 -14.810991 -0.122467 31.629492 -52.104437 29.215894 10.408837 2.921008 26.061372 -3.448558 -3.790217 3.681764 0.000000 0.000000 0.000000 0.000000 0.000000 0.000000 0.000000 0.000000 0.000000 0.000000 0.000000 0.000000 0.000000 0.000000 0.000000 0.000000 0.000000 0.000000 0.000000 0.000000 0.000000 0.000000 0.000000 0.000000 0.000000 0.000000 0.000000 0.000000 0.000000 0.000000 0.000000 0.000000 0.000000 0.000000 0.000000 0.000000 0.000000 0.000000 0.000000 0.000000 0.000000 0.000000
-0.003084 -0.033111 1.041320 -4.508976 0.905656 2.501920 2.934302 1.717817 -1.792983 4.010200 -0.177959 -11.561693 -6.973923 0.536587 7.662022 3.032837 -3.695777 0.444743 1.140244 -1.520583 1.148469 5.004945 0.680595 5.187137 -4.046869 -3.859893 -3.887867 0.994772 -2.277742 -1.357878 4.231600 0.128581 2.443843 4.693313 -4.115748 -2.748513 -5.279449 3.333466 0.429440 9.320863 0.180599 3.524367 14.615666 1.624154 2.856455 5.507744 21.005464 3.145849 18.323088 48.804000 -23.294203 17.826756 -2.062199 -20.636033 3.849861 0.532458 -7.532001 0.000000 0.000000 0.000000 0.000000 0.000000 0.000000 0.000000 0.000000 0.000000 0.000000 0.000000 0.000000 0.000000 0.000000 0.000000 0.000000 0.000000 0.000000 0.000000 0.000000 0.000000 0.000000 0.000000 0.000000 0.000000 0.000000 0.000000 0.000000 0.000000 0.000000 0.000000 0.000000 0.000000 0.000000 0.000000 0.000000 0.000000 0.000000 0.000000 0.000000 0.000000 0.000000 2.469432 -14.716524 -0.085388 31.674445 -52.132238 29.296942 10.525869 2.918366 25.959943 -3.489782 -3.792675 3.663599 0.000000 0.000000 0.000000 0.000000 0.000000 0.000000 0.000000 0.000000 0.000000 0.000000 0.000000 0.000000 0.000000 0.000000 0.000000 0.000000 0.000000 0.000000 0.000000 0.000000 0.000000 0.000000 0.000000 0.000000 0.000000 0.000000 0.000000 0.000000 0.000000 0.000000 0.000000 0.000000 0.000000 0.000000 0.000000 0.000000 0.000000 0.000000 0.000000 0.000000 0.000000 0.000000
-0.002730 -0.032126 1.041245 -4.399269 0.878220 2.393204 2.888231 1.779495 -1.825891 3.944879 -0.206259 -11.378056 -6.991504 0.562143 7.675903 3.044911 -3.660804 0.440620 1.270274 -1.496015 1.175147 4.649585 0.709550 5.211635 -4.027119 -3.881591 -3.845202 0.991035 -2.253367 -1.348337 4.204757 0.151745 2.482620 4.696128 -4.105595 -2.729039 -5.351031 3.346708 0.452838 9.290123 0.162550 3.554826 14.461194 1.616634 2.816623 5.514257 20.986848 3.216999 18.359732 48.799747 -23.210003 17.908572 -2.091446 -20.654227 3.756467 0.715032 -7.512196 0.000000 0.000000 0.000000 0.000000 0.000000 0.000000 0.000000 0.000000 0.000000 0.000000 0.000000 0.000000 0.000000 0.000000 0.000000 0.000000 0.000000 0.000000 0.000000 0.000000 0.000000 0.000000 0.000000 0.000000 0.000000 0.000000 0.000000 0.000000 0.000000 0.000000 0.000000 0.000000 0.000000 0.000000 0.000000 0.000000 0.000000 0.000000 0.000000 0.000000 0.000000 0.000000 2.517784 -14.693283 -0.059849 31.778348 -52.180666 29.382897 10.533020 2.935765 25.947151 -3.520943 -3.807579 3.646596 0.000000 0.000000 0.000000 0.000000 0.000000 0.000000 0.000000 0.000000 0.000000 0.000000 0.000000 0.000000 0.000000 0.000000 0.000000 0.000000 0.000000 0.000000 0.000000 0.000000 0.000000 0.000000 0.000000 0.000000 0.000000 0.000000 0.000000 0.000000 0.000000 0.000000 0.000000 0.000000 0.000000 0.000000 0.000000 0.000000 0.000000 0.000000 0.000000 0.000000 0.000000 0.000000
-0.002857 -0.031555 1.041178 -4.349796 0.886278 2.343164 2.806268 1.798496 -1.854714 4.054100 -0.208980 -11.300588 -7.067294 0.540158 7.707877 3.043143 -3.628516 0.431461 1.360879 -1.486789 1.183459 4.489189 0.702288 5.229282 -4.047312 -3.878437 -3.816733 0.975692 -2.243138 -1.337500 4.186807 0.147613 2.502396 4.728483 -4.120923 -2.711336 -5.411022 3.341528 0.462975 9.320707 0.167177 3.601010 14.380348 1.607748 2.827822 5.563974 20.995121 3.242298 18.380440 48.817002 -23.148750 17.968834 -2.101268 -20.682140 3.704227 0.781120 -7.502248 0.000000 0.000000 0.000000 0.000000 0.000000 0.000000 0.000000 0.000000 0.000000 0.000000 0.000000 0.000000 0.000000 0.000000 0.000000 0.000000 0.000000 0.000000 0.000000 0.000000 0.000000 0.000000 0.000000 0.000000 0.000000 0.000000 0.000000 0.000000 0.000000 0.000000 0.000000 0.000000 0.000000 0.000000 0.000000 0.000000 0.000000 0.000000 0.000000 0.000000 0.000000 0.000000 2.594576 -14.668180 -0.026669 31.747530 -52.176654 29.338113 10.527925 2.925116 26.012022 -3.626945 -3.785863 3.674552 0.000000 0.000000 0.000000 0.000000 0.000000 0.000000 0.000000 0.000000 0.000000 0.000000 0.000000 0.000000 0.000000 0.000000 0.000000 0.000000 0.000000 0.000000 0.000000 0.000000 0.000000 0.000000 0.000000 0.000000 0.000000 0.000000 0.000000 0.000000 0.000000 0.000000 0.000000 0.000000 0.000000 0.000000 0.000000 0.000000 0.000000 0.000000 0.000000 0.000000 0.000000 0.000000
